<svg width="20" height="20" viewBox="0 0 20 20" fill="none" xmlns="http://www.w3.org/2000/svg">
<path d="M18.3473 13.031C16.7105 13.6892 14.9164 13.8518 13.1879 13.4987C11.4595 13.1456 9.8729 12.2923 8.62545 11.0448C7.378 9.79738 6.52468 8.21081 6.17155 6.48236C5.81843 4.7539 5.98108 2.95977 6.63928 1.323C4.70099 2.10373 3.09464 3.53439 2.0956 5.36972C1.09657 7.20505 0.76707 9.33074 1.16359 11.3824C1.56011 13.434 2.65796 15.2839 4.26893 16.6148C5.8799 17.9457 7.90366 18.6747 9.99328 18.677C11.7902 18.6771 13.546 18.1394 15.0348 17.1332C16.5236 16.127 17.6773 14.6983 18.3473 13.031Z" stroke="#F6F8FD" stroke-width="2" stroke-linecap="round" stroke-linejoin="round"/>
</svg>
